<svg viewBox="0 0 1593.0078125 400" xmlns="http://www.w3.org/2000/svg"><g><g><g><g><g><line x1="58.515625" y1="377" x2="53.515625" y2="377" style="visibility: inherit;" fill="rgb(0, 0, 0)" stroke="rgb(204, 204, 204)" stroke-width="1px"></line><line x1="58.515625" y1="342.72727272727275" x2="53.515625" y2="342.72727272727275" style="visibility: inherit;" fill="rgb(0, 0, 0)" stroke="rgb(204, 204, 204)" stroke-width="1px"></line><line x1="58.515625" y1="308.45454545454544" x2="53.515625" y2="308.45454545454544" style="visibility: inherit;" fill="rgb(0, 0, 0)" stroke="rgb(204, 204, 204)" stroke-width="1px"></line><line x1="58.515625" y1="274.1818181818182" x2="53.515625" y2="274.1818181818182" style="visibility: inherit;" fill="rgb(0, 0, 0)" stroke="rgb(204, 204, 204)" stroke-width="1px"></line><line x1="58.515625" y1="239.9090909090909" x2="53.515625" y2="239.9090909090909" style="visibility: inherit;" fill="rgb(0, 0, 0)" stroke="rgb(204, 204, 204)" stroke-width="1px"></line><line x1="58.515625" y1="205.63636363636365" x2="53.515625" y2="205.63636363636365" style="visibility: inherit;" fill="rgb(0, 0, 0)" stroke="rgb(204, 204, 204)" stroke-width="1px"></line><line x1="58.515625" y1="171.36363636363637" x2="53.515625" y2="171.36363636363637" style="visibility: inherit;" fill="rgb(0, 0, 0)" stroke="rgb(204, 204, 204)" stroke-width="1px"></line><line x1="58.515625" y1="137.0909090909091" x2="53.515625" y2="137.0909090909091" style="visibility: inherit;" fill="rgb(0, 0, 0)" stroke="rgb(204, 204, 204)" stroke-width="1px"></line><line x1="58.515625" y1="102.81818181818181" x2="53.515625" y2="102.81818181818181" style="visibility: inherit;" fill="rgb(0, 0, 0)" stroke="rgb(204, 204, 204)" stroke-width="1px"></line><line x1="58.515625" y1="68.5454545454545" x2="53.515625" y2="68.5454545454545" style="visibility: inherit;" fill="rgb(0, 0, 0)" stroke="rgb(204, 204, 204)" stroke-width="1px"></line><line x1="58.515625" y1="34.27272727272731" x2="53.515625" y2="34.27272727272731" style="visibility: inherit;" fill="rgb(0, 0, 0)" stroke="rgb(204, 204, 204)" stroke-width="1px"></line><line x1="58.515625" y1="0" x2="53.515625" y2="0" style="visibility: inherit;" fill="rgb(0, 0, 0)" stroke="rgb(204, 204, 204)" stroke-width="1px"></line></g><g transform="translate(48.515625, 0)"><text x="0" y="377" dx="0em" dy="0.3em" style="text-anchor: end; visibility: hidden; font-family: &quot;Helvetica Neue&quot;, sans-serif; font-size: 12px; font-weight: 200;" fill="rgb(50, 49, 63)" stroke="none" stroke-width="1px">-5.00</text><text x="0" y="342.72727272727275" dx="0em" dy="0.3em" style="text-anchor: end; visibility: inherit; font-family: &quot;Helvetica Neue&quot;, sans-serif; font-size: 12px; font-weight: 200;" fill="rgb(50, 49, 63)" stroke="none" stroke-width="1px">0.00</text><text x="0" y="308.45454545454544" dx="0em" dy="0.3em" style="text-anchor: end; visibility: inherit; font-family: &quot;Helvetica Neue&quot;, sans-serif; font-size: 12px; font-weight: 200;" fill="rgb(50, 49, 63)" stroke="none" stroke-width="1px">5.00</text><text x="0" y="274.1818181818182" dx="0em" dy="0.3em" style="text-anchor: end; visibility: inherit; font-family: &quot;Helvetica Neue&quot;, sans-serif; font-size: 12px; font-weight: 200;" fill="rgb(50, 49, 63)" stroke="none" stroke-width="1px">10.0</text><text x="0" y="239.9090909090909" dx="0em" dy="0.3em" style="text-anchor: end; visibility: inherit; font-family: &quot;Helvetica Neue&quot;, sans-serif; font-size: 12px; font-weight: 200;" fill="rgb(50, 49, 63)" stroke="none" stroke-width="1px">15.0</text><text x="0" y="205.63636363636365" dx="0em" dy="0.3em" style="text-anchor: end; visibility: inherit; font-family: &quot;Helvetica Neue&quot;, sans-serif; font-size: 12px; font-weight: 200;" fill="rgb(50, 49, 63)" stroke="none" stroke-width="1px">20.0</text><text x="0" y="171.36363636363637" dx="0em" dy="0.3em" style="text-anchor: end; visibility: inherit; font-family: &quot;Helvetica Neue&quot;, sans-serif; font-size: 12px; font-weight: 200;" fill="rgb(50, 49, 63)" stroke="none" stroke-width="1px">25.0</text><text x="0" y="137.0909090909091" dx="0em" dy="0.3em" style="text-anchor: end; visibility: inherit; font-family: &quot;Helvetica Neue&quot;, sans-serif; font-size: 12px; font-weight: 200;" fill="rgb(50, 49, 63)" stroke="none" stroke-width="1px">30.0</text><text x="0" y="102.81818181818181" dx="0em" dy="0.3em" style="text-anchor: end; visibility: inherit; font-family: &quot;Helvetica Neue&quot;, sans-serif; font-size: 12px; font-weight: 200;" fill="rgb(50, 49, 63)" stroke="none" stroke-width="1px">35.0</text><text x="0" y="68.5454545454545" dx="0em" dy="0.3em" style="text-anchor: end; visibility: inherit; font-family: &quot;Helvetica Neue&quot;, sans-serif; font-size: 12px; font-weight: 200;" fill="rgb(50, 49, 63)" stroke="none" stroke-width="1px">40.0</text><text x="0" y="34.27272727272731" dx="0em" dy="0.3em" style="text-anchor: end; visibility: inherit; font-family: &quot;Helvetica Neue&quot;, sans-serif; font-size: 12px; font-weight: 200;" fill="rgb(50, 49, 63)" stroke="none" stroke-width="1px">45.0</text><text x="0" y="0" dx="0em" dy="0.3em" style="text-anchor: end; visibility: hidden; font-family: &quot;Helvetica Neue&quot;, sans-serif; font-size: 12px; font-weight: 200;" fill="rgb(50, 49, 63)" stroke="none" stroke-width="1px">50.0</text></g><line x1="58.515625" y1="0" x2="58.515625" y2="377" fill="rgb(0, 0, 0)" stroke="rgb(204, 204, 204)" stroke-width="1px"></line></g></g><g transform="translate(58, 0)" clip-path="url(#clip_0)"><clipPath id="clip_0"><rect width="1534" height="376"></rect></clipPath><g><g><g><line x1="0" y1="0" x2="0" y2="377" fill="rgb(0, 0, 0)" stroke="rgb(60, 60, 60)" stroke-width="1px" opacity="0.25"></line><line x1="170.499375" y1="0" x2="170.499375" y2="377" fill="rgb(0, 0, 0)" stroke="rgb(60, 60, 60)" stroke-width="1px" opacity="0.25"></line><line x1="340.99875" y1="0" x2="340.99875" y2="377" fill="rgb(0, 0, 0)" stroke="rgb(60, 60, 60)" stroke-width="1px" opacity="0.25"></line><line x1="511.49812499999996" y1="0" x2="511.49812499999996" y2="377" fill="rgb(0, 0, 0)" stroke="rgb(60, 60, 60)" stroke-width="1px" opacity="0.25"></line><line x1="681.9975" y1="0" x2="681.9975" y2="377" fill="rgb(0, 0, 0)" stroke="rgb(60, 60, 60)" stroke-width="1px" opacity="0.25"></line><line x1="852.496875" y1="0" x2="852.496875" y2="377" fill="rgb(0, 0, 0)" stroke="rgb(60, 60, 60)" stroke-width="1px" opacity="0.25"></line><line x1="1022.9962499999999" y1="0" x2="1022.9962499999999" y2="377" fill="rgb(0, 0, 0)" stroke="rgb(60, 60, 60)" stroke-width="1px" opacity="0.25"></line><line x1="1193.495625" y1="0" x2="1193.495625" y2="377" fill="rgb(0, 0, 0)" stroke="rgb(60, 60, 60)" stroke-width="1px" opacity="0.25"></line><line x1="1363.995" y1="0" x2="1363.995" y2="377" fill="rgb(0, 0, 0)" stroke="rgb(60, 60, 60)" stroke-width="1px" opacity="0.25"></line><line x1="1534.494375" y1="0" x2="1534.494375" y2="377" fill="rgb(0, 0, 0)" stroke="rgb(60, 60, 60)" stroke-width="1px" opacity="0.25"></line></g><g><line x1="0" y1="377" x2="1534.494375" y2="377" fill="rgb(0, 0, 0)" stroke="rgb(60, 60, 60)" stroke-width="1px" opacity="0.25"></line><line x1="0" y1="342.72727272727275" x2="1534.494375" y2="342.72727272727275" fill="rgb(0, 0, 0)" stroke="rgb(60, 60, 60)" stroke-width="1px" opacity="0.25"></line><line x1="0" y1="308.45454545454544" x2="1534.494375" y2="308.45454545454544" fill="rgb(0, 0, 0)" stroke="rgb(60, 60, 60)" stroke-width="1px" opacity="0.25"></line><line x1="0" y1="274.1818181818182" x2="1534.494375" y2="274.1818181818182" fill="rgb(0, 0, 0)" stroke="rgb(60, 60, 60)" stroke-width="1px" opacity="0.25"></line><line x1="0" y1="239.9090909090909" x2="1534.494375" y2="239.9090909090909" fill="rgb(0, 0, 0)" stroke="rgb(60, 60, 60)" stroke-width="1px" opacity="0.25"></line><line x1="0" y1="205.63636363636365" x2="1534.494375" y2="205.63636363636365" fill="rgb(0, 0, 0)" stroke="rgb(60, 60, 60)" stroke-width="1px" opacity="0.25"></line><line x1="0" y1="171.36363636363637" x2="1534.494375" y2="171.36363636363637" fill="rgb(0, 0, 0)" stroke="rgb(60, 60, 60)" stroke-width="1px" opacity="0.25"></line><line x1="0" y1="137.0909090909091" x2="1534.494375" y2="137.0909090909091" fill="rgb(0, 0, 0)" stroke="rgb(60, 60, 60)" stroke-width="1px" opacity="0.25"></line><line x1="0" y1="102.81818181818181" x2="1534.494375" y2="102.81818181818181" fill="rgb(0, 0, 0)" stroke="rgb(60, 60, 60)" stroke-width="1px" opacity="0.25"></line><line x1="0" y1="68.5454545454545" x2="1534.494375" y2="68.5454545454545" fill="rgb(0, 0, 0)" stroke="rgb(60, 60, 60)" stroke-width="1px" opacity="0.25"></line><line x1="0" y1="34.27272727272731" x2="1534.494375" y2="34.27272727272731" fill="rgb(0, 0, 0)" stroke="rgb(60, 60, 60)" stroke-width="1px" opacity="0.25"></line><line x1="0" y1="0" x2="1534.494375" y2="0" fill="rgb(0, 0, 0)" stroke="rgb(60, 60, 60)" stroke-width="1px" opacity="0.25"></line></g></g></g><g><g><line x1="0" y1="342.72727272727275" x2="1534.494375" y2="342.72727272727275" fill="rgb(0, 0, 0)" stroke="rgb(153, 153, 153)" stroke-width="1.5px"></line></g></g><g><g><line x1="170.499375" y1="0" x2="170.499375" y2="377" fill="rgb(0, 0, 0)" stroke="rgb(153, 153, 153)" stroke-width="1.5px"></line></g></g><g><g><g><g><g><path style="fill: none;" stroke="rgb(255, 112, 67)" stroke-width="2px" d="M182.945829375,-95.31602191925049L201.1040128125,3.619341643268001L219.5179453125,58.24934262770387L237.67612874999998,96.96354803769157L255.74906249999998,131.43616758658428L273.13999874999996,150.19271433046575L291.6391809375,162.4049646918149L309.8826140625,141.67591479913176L328.1260471875,163.4559750019657L346.19898093750004,181.29470961356307L363.84566624999997,190.64090437808153L382.0038496875,195.4331407508891L400.41778218749994,198.89431740923084L418.66121531249996,203.47352480616405L437.0751478125,196.52400214471578L454.2955846875,194.75948648279046L472.6242675,197.54312953963532L490.7824509375,203.553619161926L508.940634375,212.3580052208596L527.4398165625,220.5009087066799L545.25700125,203.52837452970437L563.2446853125,207.25389537584803L581.573368125,209.27682955186478L599.9020509375,199.67662810459495L618.1454840625,183.79039022394292L635.62167,200.78137747607113L653.865103125,209.2768177505616L672.3642853125,217.5620667560696L690.7782178125,225.3802238696012L708.93640125,220.67301947840468L726.4125871875,214.2242995660341L744.74127,230.71817092030165L762.81420375,234.2591210582299L781.3133859375,224.54617295735648L799.7273184375,223.81902448446525L817.1182546875,217.95924990388235L835.5321871875,223.36058551536416L853.86087,226.49200971907146L872.104303125,230.6079655762138L890.5182356250001,236.88583547397678L907.909171875,226.305358160176L926.4936037499999,229.5312749708896L944.9927859375,223.385297033249L963.4067184375,235.7387099941938L981.6501515624999,233.22737920292482L999.1263375,248.04208328957665L1017.54027,226.59628406139927L1036.2099515625,230.62062930280507L1054.2828853125,248.10468049375618L1072.6115681249998,237.91547701679644L1090.343503125,237.4357802674717L1108.58693625,239.28365631938846L1126.7451196875,234.52994712636712L1145.0738025,230.92093527799307L1163.4024853125,234.29857543931357L1180.87867125,235.0179287080796L1199.2073540625,237.23577438404993L1217.6212865625,246.9716987141266L1236.2057184374999,250.33643742610798L1254.704900625,250.983801535643L1272.095836875,243.74307357108827L1290.5950190625,250.6375403373885L1308.6679528125,250.01834868335686L1327.0818853125,251.0630912856533L1345.5810675,242.8716910945232" fill="none"></path></g></g></g></g><g opacity="0.2"><g><g><g><path style="fill: none;" stroke="rgb(255, 112, 67)" stroke-width="2px" d="M170.499375,-266.97777834805584L182.945829375,7.681031938032675L201.1040128125,98.59729066328572L219.5179453125,122.49422378540038L237.67612874999998,147.5088146209717L255.74906249999998,179.12421056574044L273.13999874999996,177.01487627896395L291.6391809375,180.21054295626553L309.8826140625,111.10459261807529L328.1260471875,195.7968260678378L346.19898093750004,207.8910155209628L363.84566624999997,204.6093349456787L382.0038496875,202.605847826871L400.41778218749994,204.079301591353L418.66121531249996,210.33695321516558L437.0751478125,186.10461949435145L454.2955846875,192.11345967379484L472.6242675,201.71788735823196L490.7824509375,212.56843795776368L508.940634375,225.5637795535001L527.4398165625,232.71481735923075L545.25700125,178.07013175270774L563.2446853125,212.84210309115323L581.573368125,212.31120685230604L599.9020509375,185.27639416781338L618.1454840625,159.96110115051272L635.62167,226.26781487898393L653.865103125,222.01996511979536L672.3642853125,229.98993263244628L690.7782178125,237.10745521892198L708.93640125,213.61221445257013L726.4125871875,204.55122098055753L744.74127,255.458975982666L762.81420375,239.57054601149125L781.3133859375,209.97675122347744L799.7273184375,222.72830179387873L817.1182546875,209.16958812366835L835.5321871875,231.46258888244628L853.86087,231.18914600719103L872.104303125,236.78189934817226L890.5182356250001,246.30264030803332L907.909171875,210.43464220220392L926.4936037499999,234.37015018463134L944.9927859375,214.16633012945002L963.4067184375,254.2688294324008L981.6501515624999,229.4603830164129L999.1263375,270.2641394181685L1017.54027,194.4275852203369L1036.2099515625,236.65714716477828L1054.2828853125,274.3307572798295L1072.6115681249998,222.63167180148037L1090.343503125,236.7162351434881L1108.58693625,242.05547039725565L1126.7451196875,227.39938333684748L1145.0738025,225.50741750543767L1163.4024853125,239.36503568129106L1180.87867125,236.09695861122825L1199.2073540625,240.5625428980047L1217.6212865625,261.5755852092396L1236.2057184374999,255.38354549407958L1254.704900625,251.95484769994562L1272.095836875,232.88198162425647L1290.5950190625,260.9792404868386L1308.6679528125,249.08956120230937L1327.0818853125,252.63020518909804L1345.5810675,230.58459080782802" fill="none"></path></g></g></g></g></g></g><g transform="translate(58, 377)" clip-path="url(#clip_1)"><clipPath id="clip_1"><rect width="1534" height="22"></rect></clipPath><g><g><line x1="0" y1="0" x2="0" y2="5" style="visibility: inherit;" fill="rgb(0, 0, 0)" stroke="rgb(204, 204, 204)" stroke-width="1px"></line><line x1="170.499375" y1="0" x2="170.499375" y2="5" style="visibility: inherit;" fill="rgb(0, 0, 0)" stroke="rgb(204, 204, 204)" stroke-width="1px"></line><line x1="340.99875" y1="0" x2="340.99875" y2="5" style="visibility: inherit;" fill="rgb(0, 0, 0)" stroke="rgb(204, 204, 204)" stroke-width="1px"></line><line x1="511.49812499999996" y1="0" x2="511.49812499999996" y2="5" style="visibility: inherit;" fill="rgb(0, 0, 0)" stroke="rgb(204, 204, 204)" stroke-width="1px"></line><line x1="681.9975" y1="0" x2="681.9975" y2="5" style="visibility: inherit;" fill="rgb(0, 0, 0)" stroke="rgb(204, 204, 204)" stroke-width="1px"></line><line x1="852.496875" y1="0" x2="852.496875" y2="5" style="visibility: inherit;" fill="rgb(0, 0, 0)" stroke="rgb(204, 204, 204)" stroke-width="1px"></line><line x1="1022.9962499999999" y1="0" x2="1022.9962499999999" y2="5" style="visibility: inherit;" fill="rgb(0, 0, 0)" stroke="rgb(204, 204, 204)" stroke-width="1px"></line><line x1="1193.495625" y1="0" x2="1193.495625" y2="5" style="visibility: inherit;" fill="rgb(0, 0, 0)" stroke="rgb(204, 204, 204)" stroke-width="1px"></line><line x1="1363.995" y1="0" x2="1363.995" y2="5" style="visibility: inherit;" fill="rgb(0, 0, 0)" stroke="rgb(204, 204, 204)" stroke-width="1px"></line><line x1="1534.494375" y1="0" x2="1534.494375" y2="5" style="visibility: inherit;" fill="rgb(0, 0, 0)" stroke="rgb(204, 204, 204)" stroke-width="1px"></line></g><g transform="translate(0, 8)"><text x="0" y="0" dx="0em" dy="0.95em" style="text-anchor: middle; visibility: hidden; font-family: &quot;Helvetica Neue&quot;, sans-serif; font-size: 12px; font-weight: 200;" fill="rgb(50, 49, 63)" stroke="none" stroke-width="1px">-2.000k</text><text x="170.499375" y="0" dx="0em" dy="0.95em" style="text-anchor: middle; visibility: inherit; font-family: &quot;Helvetica Neue&quot;, sans-serif; font-size: 12px; font-weight: 200;" fill="rgb(50, 49, 63)" stroke="none" stroke-width="1px">0.000</text><text x="340.99875" y="0" dx="0em" dy="0.95em" style="text-anchor: middle; visibility: inherit; font-family: &quot;Helvetica Neue&quot;, sans-serif; font-size: 12px; font-weight: 200;" fill="rgb(50, 49, 63)" stroke="none" stroke-width="1px">2.000k</text><text x="511.49812499999996" y="0" dx="0em" dy="0.95em" style="text-anchor: middle; visibility: inherit; font-family: &quot;Helvetica Neue&quot;, sans-serif; font-size: 12px; font-weight: 200;" fill="rgb(50, 49, 63)" stroke="none" stroke-width="1px">4.000k</text><text x="681.9975" y="0" dx="0em" dy="0.95em" style="text-anchor: middle; visibility: inherit; font-family: &quot;Helvetica Neue&quot;, sans-serif; font-size: 12px; font-weight: 200;" fill="rgb(50, 49, 63)" stroke="none" stroke-width="1px">6.000k</text><text x="852.496875" y="0" dx="0em" dy="0.95em" style="text-anchor: middle; visibility: inherit; font-family: &quot;Helvetica Neue&quot;, sans-serif; font-size: 12px; font-weight: 200;" fill="rgb(50, 49, 63)" stroke="none" stroke-width="1px">8.000k</text><text x="1022.9962499999999" y="0" dx="0em" dy="0.95em" style="text-anchor: middle; visibility: inherit; font-family: &quot;Helvetica Neue&quot;, sans-serif; font-size: 12px; font-weight: 200;" fill="rgb(50, 49, 63)" stroke="none" stroke-width="1px">10.00k</text><text x="1193.495625" y="0" dx="0em" dy="0.95em" style="text-anchor: middle; visibility: inherit; font-family: &quot;Helvetica Neue&quot;, sans-serif; font-size: 12px; font-weight: 200;" fill="rgb(50, 49, 63)" stroke="none" stroke-width="1px">12.00k</text><text x="1363.995" y="0" dx="0em" dy="0.95em" style="text-anchor: middle; visibility: inherit; font-family: &quot;Helvetica Neue&quot;, sans-serif; font-size: 12px; font-weight: 200;" fill="rgb(50, 49, 63)" stroke="none" stroke-width="1px">14.00k</text><text x="1534.494375" y="0" dx="0em" dy="0.95em" style="text-anchor: middle; visibility: hidden; font-family: &quot;Helvetica Neue&quot;, sans-serif; font-size: 12px; font-weight: 200;" fill="rgb(50, 49, 63)" stroke="none" stroke-width="1px">16.00k</text></g><line x1="0" y1="0" x2="1534.494375" y2="0" fill="rgb(0, 0, 0)" stroke="rgb(204, 204, 204)" stroke-width="1px"></line></g></g></g></g></svg>