<svg viewBox="0 0 1593.0078125 400" xmlns="http://www.w3.org/2000/svg"><g><g><g><g><g><line x1="68.21875" y1="377" x2="63.21875" y2="377" style="visibility: inherit;" fill="rgb(0, 0, 0)" stroke="rgb(204, 204, 204)" stroke-width="1px"></line><line x1="68.21875" y1="339.3" x2="63.21875" y2="339.3" style="visibility: inherit;" fill="rgb(0, 0, 0)" stroke="rgb(204, 204, 204)" stroke-width="1px"></line><line x1="68.21875" y1="301.6" x2="63.21875" y2="301.6" style="visibility: inherit;" fill="rgb(0, 0, 0)" stroke="rgb(204, 204, 204)" stroke-width="1px"></line><line x1="68.21875" y1="263.9" x2="63.21875" y2="263.9" style="visibility: inherit;" fill="rgb(0, 0, 0)" stroke="rgb(204, 204, 204)" stroke-width="1px"></line><line x1="68.21875" y1="226.2" x2="63.21875" y2="226.2" style="visibility: inherit;" fill="rgb(0, 0, 0)" stroke="rgb(204, 204, 204)" stroke-width="1px"></line><line x1="68.21875" y1="188.5" x2="63.21875" y2="188.5" style="visibility: inherit;" fill="rgb(0, 0, 0)" stroke="rgb(204, 204, 204)" stroke-width="1px"></line><line x1="68.21875" y1="150.8" x2="63.21875" y2="150.8" style="visibility: inherit;" fill="rgb(0, 0, 0)" stroke="rgb(204, 204, 204)" stroke-width="1px"></line><line x1="68.21875" y1="113.10000000000002" x2="63.21875" y2="113.10000000000002" style="visibility: inherit;" fill="rgb(0, 0, 0)" stroke="rgb(204, 204, 204)" stroke-width="1px"></line><line x1="68.21875" y1="75.39999999999998" x2="63.21875" y2="75.39999999999998" style="visibility: inherit;" fill="rgb(0, 0, 0)" stroke="rgb(204, 204, 204)" stroke-width="1px"></line><line x1="68.21875" y1="37.69999999999999" x2="63.21875" y2="37.69999999999999" style="visibility: inherit;" fill="rgb(0, 0, 0)" stroke="rgb(204, 204, 204)" stroke-width="1px"></line><line x1="68.21875" y1="0" x2="63.21875" y2="0" style="visibility: inherit;" fill="rgb(0, 0, 0)" stroke="rgb(204, 204, 204)" stroke-width="1px"></line></g><g transform="translate(58.21875, 0)"><text x="0" y="377" dx="0em" dy="0.3em" style="text-anchor: end; visibility: hidden; font-family: &quot;Helvetica Neue&quot;, sans-serif; font-size: 12px; font-weight: 200;" fill="rgb(50, 49, 63)" stroke="none" stroke-width="1px">-0.500</text><text x="0" y="339.3" dx="0em" dy="0.3em" style="text-anchor: end; visibility: inherit; font-family: &quot;Helvetica Neue&quot;, sans-serif; font-size: 12px; font-weight: 200;" fill="rgb(50, 49, 63)" stroke="none" stroke-width="1px">0.00</text><text x="0" y="301.6" dx="0em" dy="0.3em" style="text-anchor: end; visibility: inherit; font-family: &quot;Helvetica Neue&quot;, sans-serif; font-size: 12px; font-weight: 200;" fill="rgb(50, 49, 63)" stroke="none" stroke-width="1px">0.500</text><text x="0" y="263.9" dx="0em" dy="0.3em" style="text-anchor: end; visibility: inherit; font-family: &quot;Helvetica Neue&quot;, sans-serif; font-size: 12px; font-weight: 200;" fill="rgb(50, 49, 63)" stroke="none" stroke-width="1px">1.00</text><text x="0" y="226.2" dx="0em" dy="0.3em" style="text-anchor: end; visibility: inherit; font-family: &quot;Helvetica Neue&quot;, sans-serif; font-size: 12px; font-weight: 200;" fill="rgb(50, 49, 63)" stroke="none" stroke-width="1px">1.50</text><text x="0" y="188.5" dx="0em" dy="0.3em" style="text-anchor: end; visibility: inherit; font-family: &quot;Helvetica Neue&quot;, sans-serif; font-size: 12px; font-weight: 200;" fill="rgb(50, 49, 63)" stroke="none" stroke-width="1px">2.00</text><text x="0" y="150.8" dx="0em" dy="0.3em" style="text-anchor: end; visibility: inherit; font-family: &quot;Helvetica Neue&quot;, sans-serif; font-size: 12px; font-weight: 200;" fill="rgb(50, 49, 63)" stroke="none" stroke-width="1px">2.50</text><text x="0" y="113.10000000000002" dx="0em" dy="0.3em" style="text-anchor: end; visibility: inherit; font-family: &quot;Helvetica Neue&quot;, sans-serif; font-size: 12px; font-weight: 200;" fill="rgb(50, 49, 63)" stroke="none" stroke-width="1px">3.00</text><text x="0" y="75.39999999999998" dx="0em" dy="0.3em" style="text-anchor: end; visibility: inherit; font-family: &quot;Helvetica Neue&quot;, sans-serif; font-size: 12px; font-weight: 200;" fill="rgb(50, 49, 63)" stroke="none" stroke-width="1px">3.50</text><text x="0" y="37.69999999999999" dx="0em" dy="0.3em" style="text-anchor: end; visibility: inherit; font-family: &quot;Helvetica Neue&quot;, sans-serif; font-size: 12px; font-weight: 200;" fill="rgb(50, 49, 63)" stroke="none" stroke-width="1px">4.00</text><text x="0" y="0" dx="0em" dy="0.3em" style="text-anchor: end; visibility: hidden; font-family: &quot;Helvetica Neue&quot;, sans-serif; font-size: 12px; font-weight: 200;" fill="rgb(50, 49, 63)" stroke="none" stroke-width="1px">4.50</text></g><line x1="68.21875" y1="0" x2="68.21875" y2="377" fill="rgb(0, 0, 0)" stroke="rgb(204, 204, 204)" stroke-width="1px"></line></g></g><g transform="translate(68, 0)" clip-path="url(#clip_0)"><clipPath id="clip_0"><rect width="1524" height="376"></rect></clipPath><g><g><g><line x1="0" y1="0" x2="0" y2="377" fill="rgb(0, 0, 0)" stroke="rgb(60, 60, 60)" stroke-width="1px" opacity="0.25"></line><line x1="108.91366071428571" y1="0" x2="108.91366071428571" y2="377" fill="rgb(0, 0, 0)" stroke="rgb(60, 60, 60)" stroke-width="1px" opacity="0.25"></line><line x1="217.82732142857142" y1="0" x2="217.82732142857142" y2="377" fill="rgb(0, 0, 0)" stroke="rgb(60, 60, 60)" stroke-width="1px" opacity="0.25"></line><line x1="326.74098214285715" y1="0" x2="326.74098214285715" y2="377" fill="rgb(0, 0, 0)" stroke="rgb(60, 60, 60)" stroke-width="1px" opacity="0.25"></line><line x1="435.65464285714285" y1="0" x2="435.65464285714285" y2="377" fill="rgb(0, 0, 0)" stroke="rgb(60, 60, 60)" stroke-width="1px" opacity="0.25"></line><line x1="544.5683035714286" y1="0" x2="544.5683035714286" y2="377" fill="rgb(0, 0, 0)" stroke="rgb(60, 60, 60)" stroke-width="1px" opacity="0.25"></line><line x1="653.4819642857143" y1="0" x2="653.4819642857143" y2="377" fill="rgb(0, 0, 0)" stroke="rgb(60, 60, 60)" stroke-width="1px" opacity="0.25"></line><line x1="762.395625" y1="0" x2="762.395625" y2="377" fill="rgb(0, 0, 0)" stroke="rgb(60, 60, 60)" stroke-width="1px" opacity="0.25"></line><line x1="871.3092857142857" y1="0" x2="871.3092857142857" y2="377" fill="rgb(0, 0, 0)" stroke="rgb(60, 60, 60)" stroke-width="1px" opacity="0.25"></line><line x1="980.2229464285715" y1="0" x2="980.2229464285715" y2="377" fill="rgb(0, 0, 0)" stroke="rgb(60, 60, 60)" stroke-width="1px" opacity="0.25"></line><line x1="1089.1366071428572" y1="0" x2="1089.1366071428572" y2="377" fill="rgb(0, 0, 0)" stroke="rgb(60, 60, 60)" stroke-width="1px" opacity="0.25"></line><line x1="1198.050267857143" y1="0" x2="1198.050267857143" y2="377" fill="rgb(0, 0, 0)" stroke="rgb(60, 60, 60)" stroke-width="1px" opacity="0.25"></line><line x1="1306.9639285714286" y1="0" x2="1306.9639285714286" y2="377" fill="rgb(0, 0, 0)" stroke="rgb(60, 60, 60)" stroke-width="1px" opacity="0.25"></line><line x1="1415.8775892857143" y1="0" x2="1415.8775892857143" y2="377" fill="rgb(0, 0, 0)" stroke="rgb(60, 60, 60)" stroke-width="1px" opacity="0.25"></line><line x1="1524.79125" y1="0" x2="1524.79125" y2="377" fill="rgb(0, 0, 0)" stroke="rgb(60, 60, 60)" stroke-width="1px" opacity="0.25"></line></g><g><line x1="0" y1="377" x2="1524.79125" y2="377" fill="rgb(0, 0, 0)" stroke="rgb(60, 60, 60)" stroke-width="1px" opacity="0.25"></line><line x1="0" y1="339.3" x2="1524.79125" y2="339.3" fill="rgb(0, 0, 0)" stroke="rgb(60, 60, 60)" stroke-width="1px" opacity="0.25"></line><line x1="0" y1="301.6" x2="1524.79125" y2="301.6" fill="rgb(0, 0, 0)" stroke="rgb(60, 60, 60)" stroke-width="1px" opacity="0.25"></line><line x1="0" y1="263.9" x2="1524.79125" y2="263.9" fill="rgb(0, 0, 0)" stroke="rgb(60, 60, 60)" stroke-width="1px" opacity="0.25"></line><line x1="0" y1="226.2" x2="1524.79125" y2="226.2" fill="rgb(0, 0, 0)" stroke="rgb(60, 60, 60)" stroke-width="1px" opacity="0.25"></line><line x1="0" y1="188.5" x2="1524.79125" y2="188.5" fill="rgb(0, 0, 0)" stroke="rgb(60, 60, 60)" stroke-width="1px" opacity="0.25"></line><line x1="0" y1="150.8" x2="1524.79125" y2="150.8" fill="rgb(0, 0, 0)" stroke="rgb(60, 60, 60)" stroke-width="1px" opacity="0.25"></line><line x1="0" y1="113.10000000000002" x2="1524.79125" y2="113.10000000000002" fill="rgb(0, 0, 0)" stroke="rgb(60, 60, 60)" stroke-width="1px" opacity="0.25"></line><line x1="0" y1="75.39999999999998" x2="1524.79125" y2="75.39999999999998" fill="rgb(0, 0, 0)" stroke="rgb(60, 60, 60)" stroke-width="1px" opacity="0.25"></line><line x1="0" y1="37.69999999999999" x2="1524.79125" y2="37.69999999999999" fill="rgb(0, 0, 0)" stroke="rgb(60, 60, 60)" stroke-width="1px" opacity="0.25"></line><line x1="0" y1="0" x2="1524.79125" y2="0" fill="rgb(0, 0, 0)" stroke="rgb(60, 60, 60)" stroke-width="1px" opacity="0.25"></line></g></g></g><g><g><line x1="0" y1="339.3" x2="1524.79125" y2="339.3" fill="rgb(0, 0, 0)" stroke="rgb(153, 153, 153)" stroke-width="1.5px"></line></g></g><g><g><line x1="108.91366071428571" y1="0" x2="108.91366071428571" y2="377" fill="rgb(0, 0, 0)" stroke="rgb(153, 153, 153)" stroke-width="1.5px"></line></g></g><g><g><g><g><g><path stroke="rgb(255, 112, 67)" stroke-width="2px" d="M124.18335594642856,-12.878415309977072L126.36162916071429,14.888020622252327L128.539902375,-31.351631969162668L130.71817558928572,0.7056787364822981L132.89644880357145,41.00055282322654L135.07472201785714,51.5055316464107L137.25299523214287,37.466793012351275L139.43126844642856,29.646911864614367L141.60954166071429,38.086060808646266L143.78781487499998,65.07390125360195L145.9660880892857,76.22925302422561L148.14436130357143,59.85018060137628L150.32263451785715,58.65088991797904L903.5259465535714,98.80958965385372L905.7042197678572,121.467466508894L907.8824929821428,144.16623161688992L910.0607661964285,151.06619178120096L912.2390394107143,189.2923612452955L914.417312625,187.13129940571034L916.5955858392857,186.5887330256452L918.7738590535715,178.80561601726524L920.9521322678571,173.77623509352406L923.1304054821428,161.29244604087265L925.3086786964285,176.58767505381627L927.4869519107143,175.17371896394724L929.665225125,190.70259956298767L931.8434983392858,191.5701233383928L934.0217715535715,188.14472412878203L936.2000447678571,209.04335647093325L938.3783179821428,189.77483597553297L940.5565911964286,200.69113217089807L942.7348644107143,191.9555864562335L944.913137625,177.02786973327153L947.0914108392858,162.16268109088824L949.2696840535714,153.59769572087632L951.4479572678571,187.0214955549695L953.6262304821429,210.7653402310771L955.8045036964286,198.01981384038535L957.9827769107143,207.17625005826605L960.1610501250001,183.43811892292635L962.3393233392858,191.86953365596233L964.5175965535714,217.5663942757259L966.6958697678571,191.88298031446502L968.8741429821429,194.30821928953608L971.0524161964286,185.9602287004674L973.2306894107144,194.90441727820314L975.4089626250001,212.4677024661682L977.5872358392857,196.25190663212604L979.7655090535713,213.4767807762334L981.9437822678572,168.2566219020091L984.1220554821429,174.04404565860125L986.3003286964286,178.34228759032104L988.4786019107144,175.70358576906676L990.656875125,138.83632628519996L992.8351483392856,164.3018875527366L995.0134215535713,143.03241293477893L997.1916947678571,154.36010545282298L999.3699679821428,179.19365723722433L1001.5482411964286,172.3066839968756L1003.7265144107143,176.71656065676189L1005.9047876249999,186.86193827088815L1008.0830608392856,188.37266263065425L1010.2613340535714,196.1160944408041L1012.4396072678571,192.44956627523072L1014.6178804821429,209.0618981780718L1016.7961536964286,195.392136236555L1018.9744269107142,172.39838183195985L1021.1527001249999,174.19617107076402L1023.3309733392857,168.23095287896965L1025.5092465535715,159.39903401146995L1027.687519767857,185.38125146156946L1029.865792982143,165.67532604173658L1032.0440661964287,173.48006386539842L1034.2223394107143,162.50326388228834L1036.400612625,170.7209314128691L1038.5788858392857,159.80547024374812L1040.7571590535715,164.82746059397223L1042.935432267857,140.51542460620024L1045.113705482143,162.92448473274482L1047.2919786964285,173.76313228785858L1049.4702519107143,160.0343896876565L1051.6485251249999,174.0964315230126L1053.8267983392857,203.25149960365744L1056.0050715535715,212.99839014915736L1058.183344767857,224.39050000135964L1060.361617982143,203.49564153447668L1062.5398911964285,144.44518799838374L1064.7181644107143,177.62137570415115L1066.896437625,168.78262162228924L1069.0747108392857,175.8566350842744L1071.2529840535715,160.6164131680268L1073.4312572678573,191.9792289852582L1075.6095304821429,214.00159608599444L1077.7878036964285,207.64606815383968L1079.9660769107143,192.00981328610263L1082.144350125,135.09647636964132L1084.3226233392857,155.85631149622327L1086.5008965535715,178.80413332946614L1088.6791697678573,173.60359016995142L1090.8574429821429,176.0827017017633L1093.0357161964284,206.48258501222318L1095.2139894107142,208.5268808146154L1097.392262625,202.95186453460664L1099.5705358392856,183.79804811834703L1101.7488090535714,206.79564089035634L1103.927082267857,203.50347427878165L1106.1053554821428,173.41166462632052L1108.2836286964284,198.12806755859873L1110.4619019107142,199.7677989969207L1112.640175125,194.17417835292537L1114.8184483392859,192.69331289707017L1116.9967215535714,165.20694631444445L1119.174994767857,178.05125860516446L1121.3532679821428,187.00871933546196L1123.5315411964286,204.72578810838777L1125.7098144107142,205.18995538227512L1127.888087625,175.60791262908432L1130.0663608392858,124.11519946648866L1132.2446340535714,165.93637462374082L1134.422907267857,176.92697236488172L1136.6011804821428,192.48189060658163L1138.7794536964286,167.9832175777551L1140.9577269107142,188.63343003548366L1143.136000125,170.53130382512322L1145.3142733392858,160.31112253555244L1147.4925465535714,194.83617654257165L1149.670819767857,176.03386628397195L1151.8490929821428,190.9826235805028L1154.0273661964286,198.38070546353302L1156.2056394107144,197.1404010174539L1158.383912625,189.0420872710864L1160.5621858392856,186.5730590452385L1162.7404590535714,211.8736002129097L1164.9187322678572,234.91678753863448L1167.0970054821428,212.18490017515822L1169.2752786964286,209.13542816318517L1171.4535519107144,208.29398862169649L1173.631825125,194.09411927012482L1175.8100983392856,205.5108425184958L1177.9883715535714,205.51012705116705L1180.1666447678572,226.40556101768755L1182.3449179821428,209.53076251011814L1184.5231911964286,209.2954855994089L1186.7014644107144,187.01630157921932L1188.879737625,203.3290597313298L1191.0580108392855,204.94344007692655L1193.2362840535714,191.4999696667309L1195.4145572678572,169.02119916530341L1197.592830482143,186.46899052770078L1199.7711036964286,204.19656273550473L1201.9493769107144,205.84824547783543L1204.127650125,157.56305165300373L1206.3059233392858,133.71439898496627L1208.4841965535713,167.59827865413283L1210.6624697678571,145.35521444589767L1212.840742982143,161.9988483673982L1215.0190161964285,172.02730287114696L1217.1972894107141,191.70895732998798L1219.375562625,166.33135191416707L1221.5538358392857,156.75481269726734L1223.7321090535713,171.74628367167463L1225.9103822678571,195.6494342597827L1228.088655482143,195.43491574957994L1230.2669286964287,201.6660159113111L1232.445201910714,200.8168304635347L1234.623475125,202.64731820304758L1236.8017483392857,180.63396081852653L1238.9800215535715,149.9298409648403L1241.1582947678571,164.56722911045935L1243.336567982143,176.31267082122557L1245.5148411964285,172.64393117086644L1247.6931144107143,156.97527473721837L1249.871387625,135.64454417201242L1252.0496608392857,152.69127522452095L1254.2279340535715,194.4854812582935L1256.406207267857,191.31997066262988L1258.584480482143,202.00998408748882L1260.7627536964285,169.59702900382385L1262.9410269107143,172.34957768519226L1265.1193001249999,201.50644985437094L1267.2975733392857,172.5924432349187L1269.4758465535715,172.10552188348663L1271.6541197678573,194.1157916151994L1273.8323929821427,189.81449390909157L1276.0106661964285,193.6231306830709L1278.1889394107143,167.38377373454958L1280.367212625,204.02556247376202L1282.5454858392857,209.7868822840619L1284.7237590535715,197.15534327195692L1286.9020322678573,173.07371024707916L1289.0803054821429,181.33198603403545L1291.2585786964285,182.5099513555287L1293.4368519107143,182.7760698047113L1295.615125125,177.31384687702845L1297.7933983392857,182.189002935177L1299.9716715535715,202.7355719233071L1302.149944767857,202.28811248687003L1304.3282179821429,202.6742857393449L1306.5064911964284,187.78775671582375L1308.6847644107143,188.85604890978902L1310.863037625,168.3225247812067L1313.0413108392859,174.075433127391L1315.2195840535715,212.62820231456024L1317.397857267857,216.1864969464449L1319.5761304821428,195.05371350600169L1321.7544036964287,187.2573658141723L1323.9326769107142,184.61302367170038L1326.110950125,200.40677504133808L1328.2892233392859,170.6313509630658L1330.4674965535714,174.96495853468758L1332.645769767857,192.9515477526485L1334.8240429821428,192.9481148259818L1337.0023161964286,174.78707097154734L1339.1805894107142,176.22296281684564L1341.358862625,199.66066698568542L1343.5371358392858,174.79494101248667L1345.7154090535714,174.75903381372981L1347.893682267857,194.18244477668694L1350.0719554821428,181.10842491960102L1352.2502286964286,194.92143296346413L1354.4285019107144,199.41410627809373L1356.606775125,203.3554422691298L1358.7850483392856,170.71013175933552L1360.9633215535714,165.61951327496166L1363.1415947678572,181.2465309534871L1365.3198679821428,186.82892235245725L1367.4981411964286,175.56216481284156L1369.6764144107144,190.75187552306568L1371.854687625,187.18832120617338L1374.0329608392856,194.0157026083476L1376.2112340535714,201.81416131682437L1378.3895072678572,179.81912102715518L1380.5677804821428,160.83409758577554L1382.7460536964286,181.86082446676377L1384.9243269107144,202.7311599975937L1387.102600125,218.55394135034757L1389.2808733392856,219.67182380984235L1391.4591465535714,219.73042660135036L1393.6374197678572,194.80133596645598L1395.815692982143,166.61067737333065L1397.9939661964286,156.8065513443475L1400.1722394107142,171.7636069960311L1402.350512625,183.62268984955045L1404.5287858392858,199.69341039563113L1406.7070590535714,214.6972067159706L1408.8853322678572,209.07444037212693L1411.063605482143,199.16476468332863L1413.2418786964286,205.3149320178524L1415.4201519107141,197.9249048550901L1417.598425125,205.83294878005844L1419.7766983392858,199.79624156951823L1421.9549715535713,132.1386724472041L1424.1332447678571,176.7725222969052L1426.311517982143,194.03351892852766L1428.4897911964285,199.40375174179067L1430.6680644107141,209.01424619850152L1432.846337625,193.46186980543513L1435.0246108392857,183.59973403536068L1437.2028840535716,194.6245573706793L1439.3811572678571,192.4126208989243L1441.559430482143,199.12336136152865" style="fill: none;" fill="none"></path></g></g></g></g><g opacity="0.2"><g><g><g><path stroke="rgb(255, 112, 67)" stroke-width="2px" d="M119.82680951785714,-23.375182151794434L122.00508273214287,17.95741786956785L124.18335594642856,18.09544343948363L126.36162916071429,55.8381202697754L128.539902375,-100.01212711334233L130.71817558928572,48.50088734626769L132.89644880357145,101.22358102798461L135.07472201785714,67.22869930267336L137.25299523214287,16.436188411712635L139.43126844642856,17.926282119750965L141.60954166071429,50.73883228302003L143.78781487499998,105.54424157142637L145.9660880892857,92.95944833755493L148.14436130357143,35.284067153930664L150.32263451785715,56.85206351280215L903.5259465535714,159.04543685913086L905.7042197678572,155.45353622436522L907.8824929821428,178.21393113136293L910.0607661964285,161.41605029106142L912.2390394107143,246.6313437461853L914.417312625,183.88971586227416L916.5955858392857,185.77488484382627L918.7738590535715,167.1309524536133L920.9521322678571,166.23216834068296L923.1304054821428,142.56676936149597L925.3086786964285,199.5305135011673L927.4869519107143,173.05278511047362L929.665225125,213.9959186077118L931.8434983392858,192.87140893936157L934.0217715535715,183.00662546157838L936.2000447678571,240.3913044452667L938.3783179821428,160.8720555305481L940.5565911964286,217.06557636260987L942.7348644107143,178.85226793289183L944.913137625,154.63629469871523L947.0914108392858,139.86489815711974L949.2696840535714,140.75021767616272L951.4479572678571,237.1571952819824L953.6262304821429,246.38110723495484L955.8045036964286,178.9015242576599L957.9827769107143,220.91090438365936L960.1610501250001,147.83092222213747L962.3393233392858,204.51665575504302L964.5175965535714,256.11168520450593L966.6958697678571,153.35785937309265L968.8741429821429,197.94607775211335L971.0524161964286,173.43824281692503L973.2306894107144,208.32070014476776L975.4089626250001,238.81263024806975L977.5872358392857,171.92821288108826L979.7655090535713,239.31409199237822L981.9437822678572,100.42638359069826L984.1220554821429,182.72518129348754L986.3003286964286,184.7896504878998L988.4786019107144,171.74553303718568L990.656875125,83.53543705940245L992.8351483392856,202.50022945404052L995.0134215535713,111.12820100784302L997.1916947678571,171.3516442298889L999.3699679821428,216.443984913826L1001.5482411964286,161.97622413635253L1003.7265144107143,183.3313756465912L1005.9047876249999,202.08000469207764L1008.0830608392856,190.63874917030336L1010.2613340535714,207.73124215602874L1012.4396072678571,186.94977402687073L1014.6178804821429,233.98039603233337L1016.7961536964286,174.88749332427977L1018.9744269107142,137.90775022506716L1021.1527001249999,176.89285492897034L1023.3309733392857,159.28312559127806L1025.5092465535715,146.15115571022034L1027.687519767857,224.35457763671874L1029.865792982143,136.1164379119873L1032.0440661964287,185.18717060089114L1034.2223394107143,146.03806390762327L1036.400612625,183.04743270874025L1038.5788858392857,143.43227849006655L1040.7571590535715,172.36044611930845L1042.935432267857,104.04737062454222L1045.113705482143,196.53807492256163L1047.2919786964285,190.02110362052917L1049.4702519107143,139.4412757873535L1051.6485251249999,195.18949427604676L1053.8267983392857,246.98410172462462L1056.0050715535715,227.61872596740722L1058.183344767857,241.4786647796631L1060.361617982143,172.1533538341522L1062.5398911964285,55.86950769424436L1064.7181644107143,227.3856572628021L1066.896437625,155.52449049949644L1069.0747108392857,186.46765527725222L1071.2529840535715,137.75608029365537L1073.4312572678573,239.02345271110534L1075.6095304821429,247.0351467370987L1077.7878036964285,198.1127762556076L1079.9660769107143,168.5554309844971L1082.144350125,49.72647099494935L1084.3226233392857,186.9960641860962L1086.5008965535715,213.22586607933044L1088.6791697678573,165.80277543067933L1090.8574429821429,179.8013689994812L1093.0357161964284,252.0824099779129L1095.2139894107142,211.59332451820373L1097.392262625,194.5893401145935L1099.5705358392856,155.06732349395753L1101.7488090535714,241.29203004837035L1103.927082267857,198.56522436141967L1106.1053554821428,128.2739501476288L1108.2836286964284,235.20267195701598L1110.4619019107142,202.2273961544037L1112.640175125,185.78374738693236L1114.8184483392859,190.47201471328736L1116.9967215535714,123.97739644050597L1119.174994767857,197.3177270412445L1121.3532679821428,200.4449104309082L1123.5315411964286,231.3013912677765L1125.7098144107142,205.88620629310608L1127.888087625,131.2348484992981L1130.0663608392858,46.87612972259524L1132.2446340535714,228.66813735961915L1134.422907267857,193.41286897659302L1136.6011804821428,215.81426796913146L1138.7794536964286,131.23520803451538L1140.9577269107142,219.60874872207643L1143.136000125,143.37811450958253L1145.3142733392858,144.98085060119627L1147.4925465535714,246.62375755310057L1149.670819767857,147.83040089607238L1151.8490929821428,213.40575952529906L1154.0273661964286,209.4778282880783L1156.2056394107144,195.27994434833528L1158.383912625,176.89461665153505L1160.5621858392856,182.8695167064667L1162.7404590535714,249.8244119644165L1164.9187322678572,269.48156852722167L1167.0970054821428,178.08706912994387L1169.2752786964286,204.56122014522552L1171.4535519107144,207.0318293094635L1173.631825125,172.7943152427673L1175.8100983392856,222.63592739105223L1177.9883715535714,205.50905385017396L1180.1666447678572,257.74871196746824L1182.3449179821428,184.21856474876404L1184.5231911964286,208.94257023334504L1186.7014644107144,153.59752554893493L1188.879737625,227.79819695949556L1191.0580108392855,207.36501059532165L1193.2362840535714,171.3347640514374L1195.4145572678572,135.30304341316224L1197.592830482143,212.6406775712967L1199.7711036964286,230.7879210472107L1201.9493769107144,208.3257695913315L1204.127650125,85.13526091575625L1206.3059233392858,97.94141998291013L1208.4841965535713,218.4240981578827L1210.6624697678571,111.9906181335449L1212.840742982143,186.96429924964906L1215.0190161964285,187.06998462677L1217.1972894107141,221.23143901824952L1219.375562625,128.26494379043578L1221.5538358392857,142.3900038719177L1223.7321090535713,194.23349013328553L1225.9103822678571,231.50416014194488L1228.088655482143,195.11313798427582L1230.2669286964287,211.0126661539078L1232.445201910714,199.5430522918701L1234.623475125,205.3930498123169L1236.8017483392857,147.613924741745L1238.9800215535715,103.87366118431089L1241.1582947678571,186.52331132888793L1243.336567982143,193.9308333873749L1245.5148411964285,167.14082169532776L1247.6931144107143,133.47229008674623L1249.871387625,103.64844832420351L1252.0496608392857,178.26137180328368L1254.2279340535715,257.1767903089523L1256.406207267857,186.5717047691345L1258.584480482143,218.04500422477722L1260.7627536964285,120.97759637832644L1262.9410269107143,176.47840070724487L1265.1193001249999,245.24175810813904L1267.2975733392857,129.22143330574033L1269.4758465535715,171.37513985633848L1271.6541197678573,227.13119621276854L1273.8323929821427,183.3625473499298L1276.0106661964285,199.33608584403993L1278.1889394107143,128.02473831176758L1280.367212625,258.9882455825806L1282.5454858392857,218.42886199951172L1284.7237590535715,178.20803475379944L1286.9020322678573,136.95126070976255L1289.0803054821429,193.71939971446992L1291.2585786964285,184.27689933776855L1293.4368519107143,183.17524747848512L1295.615125125,169.12051248550415L1297.7933983392857,189.5017370223999L1299.9716715535715,233.55542540550232L1302.149944767857,201.61692333221436L1304.3282179821429,203.25354561805725L1306.5064911964284,165.45796318054198L1308.6847644107143,190.458487200737L1310.863037625,137.52223858833315L1313.0413108392859,182.7047956466675L1315.2195840535715,270.457356095314L1317.397857267857,221.52393889427185L1319.5761304821428,163.3545383453369L1321.7544036964287,175.56284427642822L1323.9326769107142,180.64651045799258L1326.110950125,224.09740209579468L1328.2892233392859,125.96821484565737L1330.4674965535714,181.46536989212035L1332.645769767857,219.93143157958986L1334.8240429821428,192.94296543598176L1337.0023161964286,147.5455051898956L1339.1805894107142,178.3768005847931L1341.358862625,234.81722323894502L1343.5371358392858,137.49635205268862L1345.7154090535714,174.70517301559448L1347.893682267857,223.31756122112273L1350.0719554821428,161.4973951339722L1352.2502286964286,215.64094502925872L1354.4285019107144,206.15311625003815L1356.606775125,209.2674462556839L1358.7850483392856,121.74216599464415L1360.9633215535714,157.98358554840087L1363.1415947678572,204.68705747127532L1365.3198679821428,195.2025094509125L1367.4981411964286,158.66202850341796L1369.6764144107144,213.5364415884018L1371.854687625,181.84298973083497L1374.0329608392856,204.2567747116089L1376.2112340535714,213.51184937953948L1378.3895072678572,146.8265605926514L1380.5677804821428,132.35656242370607L1382.7460536964286,213.40091478824615L1384.9243269107144,234.0366632938385L1387.102600125,242.28811337947846L1389.2808733392856,221.34864749908448L1391.4591465535714,219.81833078861237L1393.6374197678572,157.40770001411437L1395.815692982143,124.3246894836426L1397.9939661964286,142.1003623008728L1400.1722394107142,194.1991904735565L1402.350512625,201.4113141298294L1404.5287858392858,223.7994912147522L1406.7070590535714,237.2029011964798L1408.8853322678572,200.6402908563614L1411.063605482143,184.3002511501312L1413.2418786964286,214.54018301963805L1415.4201519107141,186.83986411094668L1417.598425125,217.69501466751097L1419.7766983392858,190.74118075370788L1421.9549715535713,30.65231876373292L1424.1332447678571,243.7232970714569L1426.311517982143,219.9250138759613L1428.4897911964285,207.45910096168518L1430.6680644107141,223.4299878835678L1432.846337625,170.13330521583555L1435.0246108392857,168.806530380249L1437.2028840535716,211.16179237365722L1439.3811572678571,189.0947161912918L1441.559430482143,209.18947205543517" style="fill: none;" fill="none"></path></g></g></g></g></g></g><g transform="translate(68, 377)" clip-path="url(#clip_1)"><clipPath id="clip_1"><rect width="1524" height="22"></rect></clipPath><g><g><line x1="0" y1="0" x2="0" y2="5" style="visibility: inherit;" fill="rgb(0, 0, 0)" stroke="rgb(204, 204, 204)" stroke-width="1px"></line><line x1="108.91366071428571" y1="0" x2="108.91366071428571" y2="5" style="visibility: inherit;" fill="rgb(0, 0, 0)" stroke="rgb(204, 204, 204)" stroke-width="1px"></line><line x1="217.82732142857142" y1="0" x2="217.82732142857142" y2="5" style="visibility: inherit;" fill="rgb(0, 0, 0)" stroke="rgb(204, 204, 204)" stroke-width="1px"></line><line x1="326.74098214285715" y1="0" x2="326.74098214285715" y2="5" style="visibility: inherit;" fill="rgb(0, 0, 0)" stroke="rgb(204, 204, 204)" stroke-width="1px"></line><line x1="435.65464285714285" y1="0" x2="435.65464285714285" y2="5" style="visibility: inherit;" fill="rgb(0, 0, 0)" stroke="rgb(204, 204, 204)" stroke-width="1px"></line><line x1="544.5683035714286" y1="0" x2="544.5683035714286" y2="5" style="visibility: inherit;" fill="rgb(0, 0, 0)" stroke="rgb(204, 204, 204)" stroke-width="1px"></line><line x1="653.4819642857143" y1="0" x2="653.4819642857143" y2="5" style="visibility: inherit;" fill="rgb(0, 0, 0)" stroke="rgb(204, 204, 204)" stroke-width="1px"></line><line x1="762.395625" y1="0" x2="762.395625" y2="5" style="visibility: inherit;" fill="rgb(0, 0, 0)" stroke="rgb(204, 204, 204)" stroke-width="1px"></line><line x1="871.3092857142857" y1="0" x2="871.3092857142857" y2="5" style="visibility: inherit;" fill="rgb(0, 0, 0)" stroke="rgb(204, 204, 204)" stroke-width="1px"></line><line x1="980.2229464285715" y1="0" x2="980.2229464285715" y2="5" style="visibility: inherit;" fill="rgb(0, 0, 0)" stroke="rgb(204, 204, 204)" stroke-width="1px"></line><line x1="1089.1366071428572" y1="0" x2="1089.1366071428572" y2="5" style="visibility: inherit;" fill="rgb(0, 0, 0)" stroke="rgb(204, 204, 204)" stroke-width="1px"></line><line x1="1198.050267857143" y1="0" x2="1198.050267857143" y2="5" style="visibility: inherit;" fill="rgb(0, 0, 0)" stroke="rgb(204, 204, 204)" stroke-width="1px"></line><line x1="1306.9639285714286" y1="0" x2="1306.9639285714286" y2="5" style="visibility: inherit;" fill="rgb(0, 0, 0)" stroke="rgb(204, 204, 204)" stroke-width="1px"></line><line x1="1415.8775892857143" y1="0" x2="1415.8775892857143" y2="5" style="visibility: inherit;" fill="rgb(0, 0, 0)" stroke="rgb(204, 204, 204)" stroke-width="1px"></line><line x1="1524.79125" y1="0" x2="1524.79125" y2="5" style="visibility: inherit;" fill="rgb(0, 0, 0)" stroke="rgb(204, 204, 204)" stroke-width="1px"></line></g><g transform="translate(0, 8)"><text x="0" y="0" dx="0em" dy="0.95em" style="text-anchor: middle; visibility: hidden; font-family: &quot;Helvetica Neue&quot;, sans-serif; font-size: 12px; font-weight: 200;" fill="rgb(50, 49, 63)" stroke="none" stroke-width="1px">-5.000k</text><text x="108.91366071428571" y="0" dx="0em" dy="0.95em" style="text-anchor: middle; visibility: inherit; font-family: &quot;Helvetica Neue&quot;, sans-serif; font-size: 12px; font-weight: 200;" fill="rgb(50, 49, 63)" stroke="none" stroke-width="1px">0.000</text><text x="217.82732142857142" y="0" dx="0em" dy="0.95em" style="text-anchor: middle; visibility: inherit; font-family: &quot;Helvetica Neue&quot;, sans-serif; font-size: 12px; font-weight: 200;" fill="rgb(50, 49, 63)" stroke="none" stroke-width="1px">5.000k</text><text x="326.74098214285715" y="0" dx="0em" dy="0.95em" style="text-anchor: middle; visibility: inherit; font-family: &quot;Helvetica Neue&quot;, sans-serif; font-size: 12px; font-weight: 200;" fill="rgb(50, 49, 63)" stroke="none" stroke-width="1px">10.00k</text><text x="435.65464285714285" y="0" dx="0em" dy="0.95em" style="text-anchor: middle; visibility: inherit; font-family: &quot;Helvetica Neue&quot;, sans-serif; font-size: 12px; font-weight: 200;" fill="rgb(50, 49, 63)" stroke="none" stroke-width="1px">15.00k</text><text x="544.5683035714286" y="0" dx="0em" dy="0.95em" style="text-anchor: middle; visibility: inherit; font-family: &quot;Helvetica Neue&quot;, sans-serif; font-size: 12px; font-weight: 200;" fill="rgb(50, 49, 63)" stroke="none" stroke-width="1px">20.00k</text><text x="653.4819642857143" y="0" dx="0em" dy="0.95em" style="text-anchor: middle; visibility: inherit; font-family: &quot;Helvetica Neue&quot;, sans-serif; font-size: 12px; font-weight: 200;" fill="rgb(50, 49, 63)" stroke="none" stroke-width="1px">25.00k</text><text x="762.395625" y="0" dx="0em" dy="0.95em" style="text-anchor: middle; visibility: inherit; font-family: &quot;Helvetica Neue&quot;, sans-serif; font-size: 12px; font-weight: 200;" fill="rgb(50, 49, 63)" stroke="none" stroke-width="1px">30.00k</text><text x="871.3092857142857" y="0" dx="0em" dy="0.95em" style="text-anchor: middle; visibility: inherit; font-family: &quot;Helvetica Neue&quot;, sans-serif; font-size: 12px; font-weight: 200;" fill="rgb(50, 49, 63)" stroke="none" stroke-width="1px">35.00k</text><text x="980.2229464285715" y="0" dx="0em" dy="0.95em" style="text-anchor: middle; visibility: inherit; font-family: &quot;Helvetica Neue&quot;, sans-serif; font-size: 12px; font-weight: 200;" fill="rgb(50, 49, 63)" stroke="none" stroke-width="1px">40.00k</text><text x="1089.1366071428572" y="0" dx="0em" dy="0.95em" style="text-anchor: middle; visibility: inherit; font-family: &quot;Helvetica Neue&quot;, sans-serif; font-size: 12px; font-weight: 200;" fill="rgb(50, 49, 63)" stroke="none" stroke-width="1px">45.00k</text><text x="1198.050267857143" y="0" dx="0em" dy="0.95em" style="text-anchor: middle; visibility: inherit; font-family: &quot;Helvetica Neue&quot;, sans-serif; font-size: 12px; font-weight: 200;" fill="rgb(50, 49, 63)" stroke="none" stroke-width="1px">50.00k</text><text x="1306.9639285714286" y="0" dx="0em" dy="0.95em" style="text-anchor: middle; visibility: inherit; font-family: &quot;Helvetica Neue&quot;, sans-serif; font-size: 12px; font-weight: 200;" fill="rgb(50, 49, 63)" stroke="none" stroke-width="1px">55.00k</text><text x="1415.8775892857143" y="0" dx="0em" dy="0.95em" style="text-anchor: middle; visibility: inherit; font-family: &quot;Helvetica Neue&quot;, sans-serif; font-size: 12px; font-weight: 200;" fill="rgb(50, 49, 63)" stroke="none" stroke-width="1px">60.00k</text><text x="1524.79125" y="0" dx="0em" dy="0.95em" style="text-anchor: middle; visibility: hidden; font-family: &quot;Helvetica Neue&quot;, sans-serif; font-size: 12px; font-weight: 200;" fill="rgb(50, 49, 63)" stroke="none" stroke-width="1px">65.00k</text></g><line x1="0" y1="0" x2="1524.79125" y2="0" fill="rgb(0, 0, 0)" stroke="rgb(204, 204, 204)" stroke-width="1px"></line></g></g></g></g></svg>