<svg viewBox="0 0 1593.0078125 400" xmlns="http://www.w3.org/2000/svg"><g><g><g><g><g><line x1="48.8125" y1="373.41523850892474" x2="43.8125" y2="373.41523850892474" style="visibility: inherit;" fill="rgb(0, 0, 0)" stroke="rgb(204, 204, 204)" stroke-width="1px"></line><line x1="48.8125" y1="336.13106019909003" x2="43.8125" y2="336.13106019909003" style="visibility: inherit;" fill="rgb(0, 0, 0)" stroke="rgb(204, 204, 204)" stroke-width="1px"></line><line x1="48.8125" y1="298.8468818892553" x2="43.8125" y2="298.8468818892553" style="visibility: inherit;" fill="rgb(0, 0, 0)" stroke="rgb(204, 204, 204)" stroke-width="1px"></line><line x1="48.8125" y1="261.5627035794206" x2="43.8125" y2="261.5627035794206" style="visibility: inherit;" fill="rgb(0, 0, 0)" stroke="rgb(204, 204, 204)" stroke-width="1px"></line><line x1="48.8125" y1="224.27852526958583" x2="43.8125" y2="224.27852526958583" style="visibility: inherit;" fill="rgb(0, 0, 0)" stroke="rgb(204, 204, 204)" stroke-width="1px"></line><line x1="48.8125" y1="186.9943469597511" x2="43.8125" y2="186.9943469597511" style="visibility: inherit;" fill="rgb(0, 0, 0)" stroke="rgb(204, 204, 204)" stroke-width="1px"></line><line x1="48.8125" y1="149.7101686499164" x2="43.8125" y2="149.7101686499164" style="visibility: inherit;" fill="rgb(0, 0, 0)" stroke="rgb(204, 204, 204)" stroke-width="1px"></line><line x1="48.8125" y1="112.42599034008168" x2="43.8125" y2="112.42599034008168" style="visibility: inherit;" fill="rgb(0, 0, 0)" stroke="rgb(204, 204, 204)" stroke-width="1px"></line><line x1="48.8125" y1="75.14181203024697" x2="43.8125" y2="75.14181203024697" style="visibility: inherit;" fill="rgb(0, 0, 0)" stroke="rgb(204, 204, 204)" stroke-width="1px"></line><line x1="48.8125" y1="37.85763372041225" x2="43.8125" y2="37.85763372041225" style="visibility: inherit;" fill="rgb(0, 0, 0)" stroke="rgb(204, 204, 204)" stroke-width="1px"></line><line x1="48.8125" y1="0.5734554105775374" x2="43.8125" y2="0.5734554105775374" style="visibility: inherit;" fill="rgb(0, 0, 0)" stroke="rgb(204, 204, 204)" stroke-width="1px"></line></g><g transform="translate(38.8125, 0)"><text x="0" y="373.41523850892474" dx="0em" dy="0.3em" style="text-anchor: end; visibility: hidden; font-family: &quot;Helvetica Neue&quot;, sans-serif; font-size: 12px; font-weight: 200;" fill="rgb(50, 49, 63)" stroke="none" stroke-width="1px">6.00</text><text x="0" y="336.13106019909003" dx="0em" dy="0.3em" style="text-anchor: end; visibility: inherit; font-family: &quot;Helvetica Neue&quot;, sans-serif; font-size: 12px; font-weight: 200;" fill="rgb(50, 49, 63)" stroke="none" stroke-width="1px">7.00</text><text x="0" y="298.8468818892553" dx="0em" dy="0.3em" style="text-anchor: end; visibility: inherit; font-family: &quot;Helvetica Neue&quot;, sans-serif; font-size: 12px; font-weight: 200;" fill="rgb(50, 49, 63)" stroke="none" stroke-width="1px">8.00</text><text x="0" y="261.5627035794206" dx="0em" dy="0.3em" style="text-anchor: end; visibility: inherit; font-family: &quot;Helvetica Neue&quot;, sans-serif; font-size: 12px; font-weight: 200;" fill="rgb(50, 49, 63)" stroke="none" stroke-width="1px">9.00</text><text x="0" y="224.27852526958583" dx="0em" dy="0.3em" style="text-anchor: end; visibility: inherit; font-family: &quot;Helvetica Neue&quot;, sans-serif; font-size: 12px; font-weight: 200;" fill="rgb(50, 49, 63)" stroke="none" stroke-width="1px">10.0</text><text x="0" y="186.9943469597511" dx="0em" dy="0.3em" style="text-anchor: end; visibility: inherit; font-family: &quot;Helvetica Neue&quot;, sans-serif; font-size: 12px; font-weight: 200;" fill="rgb(50, 49, 63)" stroke="none" stroke-width="1px">11.0</text><text x="0" y="149.7101686499164" dx="0em" dy="0.3em" style="text-anchor: end; visibility: inherit; font-family: &quot;Helvetica Neue&quot;, sans-serif; font-size: 12px; font-weight: 200;" fill="rgb(50, 49, 63)" stroke="none" stroke-width="1px">12.0</text><text x="0" y="112.42599034008168" dx="0em" dy="0.3em" style="text-anchor: end; visibility: inherit; font-family: &quot;Helvetica Neue&quot;, sans-serif; font-size: 12px; font-weight: 200;" fill="rgb(50, 49, 63)" stroke="none" stroke-width="1px">13.0</text><text x="0" y="75.14181203024697" dx="0em" dy="0.3em" style="text-anchor: end; visibility: inherit; font-family: &quot;Helvetica Neue&quot;, sans-serif; font-size: 12px; font-weight: 200;" fill="rgb(50, 49, 63)" stroke="none" stroke-width="1px">14.0</text><text x="0" y="37.85763372041225" dx="0em" dy="0.3em" style="text-anchor: end; visibility: inherit; font-family: &quot;Helvetica Neue&quot;, sans-serif; font-size: 12px; font-weight: 200;" fill="rgb(50, 49, 63)" stroke="none" stroke-width="1px">15.0</text><text x="0" y="0.5734554105775374" dx="0em" dy="0.3em" style="text-anchor: end; visibility: hidden; font-family: &quot;Helvetica Neue&quot;, sans-serif; font-size: 12px; font-weight: 200;" fill="rgb(50, 49, 63)" stroke="none" stroke-width="1px">16.0</text></g><line x1="48.8125" y1="0" x2="48.8125" y2="377" fill="rgb(0, 0, 0)" stroke="rgb(204, 204, 204)" stroke-width="1px"></line></g></g><g transform="translate(48, 0)" clip-path="url(#clip_0)"><clipPath id="clip_0"><rect width="1544" height="376"></rect></clipPath><g><g><g><line x1="15.923470739139852" y1="0" x2="15.923470739139852" y2="377" fill="rgb(0, 0, 0)" stroke="rgb(60, 60, 60)" stroke-width="1px" opacity="0.25"></line><line x1="206.81914360253842" y1="0" x2="206.81914360253842" y2="377" fill="rgb(0, 0, 0)" stroke="rgb(60, 60, 60)" stroke-width="1px" opacity="0.25"></line><line x1="397.71481646593696" y1="0" x2="397.71481646593696" y2="377" fill="rgb(0, 0, 0)" stroke="rgb(60, 60, 60)" stroke-width="1px" opacity="0.25"></line><line x1="588.6104893293356" y1="0" x2="588.6104893293356" y2="377" fill="rgb(0, 0, 0)" stroke="rgb(60, 60, 60)" stroke-width="1px" opacity="0.25"></line><line x1="779.506162192734" y1="0" x2="779.506162192734" y2="377" fill="rgb(0, 0, 0)" stroke="rgb(60, 60, 60)" stroke-width="1px" opacity="0.25"></line><line x1="970.4018350561325" y1="0" x2="970.4018350561325" y2="377" fill="rgb(0, 0, 0)" stroke="rgb(60, 60, 60)" stroke-width="1px" opacity="0.25"></line><line x1="1161.2975079195312" y1="0" x2="1161.2975079195312" y2="377" fill="rgb(0, 0, 0)" stroke="rgb(60, 60, 60)" stroke-width="1px" opacity="0.25"></line><line x1="1352.1931807829296" y1="0" x2="1352.1931807829296" y2="377" fill="rgb(0, 0, 0)" stroke="rgb(60, 60, 60)" stroke-width="1px" opacity="0.25"></line><line x1="1543.0888536463283" y1="0" x2="1543.0888536463283" y2="377" fill="rgb(0, 0, 0)" stroke="rgb(60, 60, 60)" stroke-width="1px" opacity="0.25"></line></g><g><line x1="0" y1="373.41523850892474" x2="1544.1975" y2="373.41523850892474" fill="rgb(0, 0, 0)" stroke="rgb(60, 60, 60)" stroke-width="1px" opacity="0.25"></line><line x1="0" y1="336.13106019909003" x2="1544.1975" y2="336.13106019909003" fill="rgb(0, 0, 0)" stroke="rgb(60, 60, 60)" stroke-width="1px" opacity="0.25"></line><line x1="0" y1="298.8468818892553" x2="1544.1975" y2="298.8468818892553" fill="rgb(0, 0, 0)" stroke="rgb(60, 60, 60)" stroke-width="1px" opacity="0.25"></line><line x1="0" y1="261.5627035794206" x2="1544.1975" y2="261.5627035794206" fill="rgb(0, 0, 0)" stroke="rgb(60, 60, 60)" stroke-width="1px" opacity="0.25"></line><line x1="0" y1="224.27852526958583" x2="1544.1975" y2="224.27852526958583" fill="rgb(0, 0, 0)" stroke="rgb(60, 60, 60)" stroke-width="1px" opacity="0.25"></line><line x1="0" y1="186.9943469597511" x2="1544.1975" y2="186.9943469597511" fill="rgb(0, 0, 0)" stroke="rgb(60, 60, 60)" stroke-width="1px" opacity="0.25"></line><line x1="0" y1="149.7101686499164" x2="1544.1975" y2="149.7101686499164" fill="rgb(0, 0, 0)" stroke="rgb(60, 60, 60)" stroke-width="1px" opacity="0.25"></line><line x1="0" y1="112.42599034008168" x2="1544.1975" y2="112.42599034008168" fill="rgb(0, 0, 0)" stroke="rgb(60, 60, 60)" stroke-width="1px" opacity="0.25"></line><line x1="0" y1="75.14181203024697" x2="1544.1975" y2="75.14181203024697" fill="rgb(0, 0, 0)" stroke="rgb(60, 60, 60)" stroke-width="1px" opacity="0.25"></line><line x1="0" y1="37.85763372041225" x2="1544.1975" y2="37.85763372041225" fill="rgb(0, 0, 0)" stroke="rgb(60, 60, 60)" stroke-width="1px" opacity="0.25"></line><line x1="0" y1="0.5734554105775374" x2="1544.1975" y2="0.5734554105775374" fill="rgb(0, 0, 0)" stroke="rgb(60, 60, 60)" stroke-width="1px" opacity="0.25"></line></g></g></g><g><g><line x1="0" y1="597.120308367933" x2="1544.1975" y2="597.120308367933" fill="rgb(0, 0, 0)" stroke="rgb(153, 153, 153)" stroke-width="1.5px"></line></g></g><g><g><line x1="15.923470739139852" y1="0" x2="15.923470739139852" y2="377" fill="rgb(0, 0, 0)" stroke="rgb(153, 153, 153)" stroke-width="1.5px"></line></g></g><g><g><g><g><g><path stroke="rgb(255, 112, 67)" stroke-width="2px" d="M92.20538161535391,111.91997919589443L108.16425986673404,13.740914490529974L127.21564801850121,-9.003861262854855L146.19067790112302,-21.29883548484173L165.12752864917215,26.89497362290456L183.94984199350324,121.58155449097504L202.77215533783436,127.67398716847785L221.67082695131083,155.86366418726868L240.72221510307799,134.1191948536397L259.73542412027246,86.6558602287048L278.5959165991763,104.76884047375012L297.1127968669259,167.59867517686394L316.0496476149751,175.18546958906268L335.2155731704603,193.67654606676012L354.30514045680013,167.75090492262865L373.1274538011312,178.86810084330244L391.79705060717157,164.72438424124036L410.96297616265684,150.56036412997966L429.4798564304065,158.38292042106633L448.1876323710195,150.7405750878771L466.78087090791456,200.44099782301188L485.2977511756642,214.98185258778892L504.5018558657221,146.93068599101L523.5532440174893,211.83116086036267L542.6046321692564,219.56513901668654L561.1215124370061,178.73961294794262L579.7147509739011,162.81389169527702L598.3079895107962,176.84593502544584L617.2066611242726,188.09256093235754L636.4107658143304,270.0751521199269L655.1949000240888,279.95126870365414L673.9790342338473,291.0765751950187L692.7631684436057,219.4510263991835L711.7000191916547,202.6099969433656L730.2550785939771,120.20006597704912L748.8483171308721,210.38775519972583L767.097943456613,217.43712860425475L786.1111524738076,241.9680577602428L805.2770780292929,249.06860691352426L824.4811827193507,242.9788163961193L843.6471082748359,254.79047171984215L862.3930633500217,324.4837266428955L881.2153766943527,272.28007818335186L900.2285857115472,297.23806926991074L919.2417947287416,299.09289916251623L938.2550037459363,278.2872120023608L956.6573466099678,216.7622563635856L975.5560182234443,213.71839105718732L994.6074063752116,259.9880631144655L1013.5824362578334,291.33028187556243L1032.7483618133185,339.2969027442364L1051.532496023077,306.40283180038597L1070.6984215785621,192.49200840812736L1089.5970931920388,275.19178587883323L1108.6484813438058,274.0314801868507L1127.585332091855,292.0966368699754L1143.3533146703717,296.5148828994908L1162.404702822139,286.5320645662562L1181.4179118393333,275.3664744292761L1200.5456582602458,316.82530071626235L1219.6352255465856,305.0785172801335L1237.8084936031812,306.38119204823295L1257.012598293239,246.04122331675134L1276.0258073104335,252.2562298979916L1294.8862997893375,310.9820636259868L1313.9376879411047,281.9647729716296L1332.3400308051362,317.56040109659716L1351.4295980914762,315.5100957014905L1370.4809862432433,326.37241609780244L1389.456016125865,312.9241041118367" style="fill: none;" fill="none"></path></g></g></g></g><g opacity="0.2"><g><g><g><path stroke="rgb(255, 112, 67)" stroke-width="2px" d="M92.20538161535391,111.91997919589443L108.16425986673404,-45.16652433268865L146.19067790112302,-35.75772516989838L165.12752864917215,89.81681079397833L183.94984199350324,252.56718300062917L202.77215533783436,136.38626337622975L221.67082695131083,196.96448390156493L240.72221510307799,102.0503262322602L259.73542412027246,16.17833987754716L278.5959165991763,131.77402744361072L297.1127968669259,261.501510045646L316.0496476149751,186.54088900726575L335.2155731704603,221.37693483952094L354.30514045680013,128.89291782438497L373.1274538011312,195.53605401642452L391.79705060717157,143.51479448500228L410.96297616265684,129.31793020626043L429.4798564304065,170.11556316997948L448.1876323710195,139.27775562872813L466.78087090791456,274.9889062364132L485.2977511756642,236.7926562619346L504.5018558657221,44.8552796474159L523.5532440174893,309.1811043563944L542.6046321692564,231.16605128136584L561.1215124370061,117.50149794704646L579.7147509739011,138.9253505658345L598.3079895107962,197.89397847820734L617.2066611242726,204.96248943299295L636.4107658143304,393.0489935907488L655.1949000240888,294.7654403042174L673.9790342338473,307.76453271850204L692.7631684436057,112.01271175608281L711.7000191916547,177.34845396592715L730.2550785939771,-3.414826930712877L748.8483171308721,345.6692867081554L767.097943456613,228.01118860198287L786.1111524738076,278.7644512665046L805.2770780292929,259.71943060389776L824.4811827193507,233.84413064036332L843.6471082748359,272.50795468174243L862.3930633500217,429.0236089436293L881.2153766943527,193.97460553171945L900.2285857115472,334.6750558889396L919.2417947287416,301.8751440009425L938.2550037459363,247.07868126537159L956.6573466099678,124.47482291117868L975.5560182234443,209.15259309776076L994.6074063752116,329.3925711988244L1013.5824362578334,338.34361001657453L1032.7483618133185,411.24683404666575L1051.532496023077,257.06172538484964L1070.6984215785621,21.625773320236704L1089.5970931920388,399.2414520846754L1108.6484813438058,272.29102164887854L1127.585332091855,319.19437189464554L1143.3533146703717,303.1422519437614L1162.404702822139,271.55783706640784L1181.4179118393333,258.61808922380817L1200.5456582602458,379.0135401467366L1219.6352255465856,287.45834212594104L1237.8084936031812,308.33520420038195L1257.012598293239,155.5312702195305L1276.0258073104335,261.5787397698519L1294.8862997893375,399.07081421797915L1313.9376879411047,238.43883699009396L1332.3400308051362,370.95384328404833L1351.4295980914762,312.4346376088306L1370.4809862432433,342.6658966922703L1389.456016125865,292.7516361328881" style="fill: none;" fill="none"></path></g></g></g></g></g></g><g transform="translate(48, 377)" clip-path="url(#clip_1)"><clipPath id="clip_1"><rect width="1544" height="22"></rect></clipPath><g><g><line x1="15.923470739139852" y1="0" x2="15.923470739139852" y2="5" style="visibility: inherit;" fill="rgb(0, 0, 0)" stroke="rgb(204, 204, 204)" stroke-width="1px"></line><line x1="206.81914360253842" y1="0" x2="206.81914360253842" y2="5" style="visibility: inherit;" fill="rgb(0, 0, 0)" stroke="rgb(204, 204, 204)" stroke-width="1px"></line><line x1="397.71481646593696" y1="0" x2="397.71481646593696" y2="5" style="visibility: inherit;" fill="rgb(0, 0, 0)" stroke="rgb(204, 204, 204)" stroke-width="1px"></line><line x1="588.6104893293356" y1="0" x2="588.6104893293356" y2="5" style="visibility: inherit;" fill="rgb(0, 0, 0)" stroke="rgb(204, 204, 204)" stroke-width="1px"></line><line x1="779.506162192734" y1="0" x2="779.506162192734" y2="5" style="visibility: inherit;" fill="rgb(0, 0, 0)" stroke="rgb(204, 204, 204)" stroke-width="1px"></line><line x1="970.4018350561325" y1="0" x2="970.4018350561325" y2="5" style="visibility: inherit;" fill="rgb(0, 0, 0)" stroke="rgb(204, 204, 204)" stroke-width="1px"></line><line x1="1161.2975079195312" y1="0" x2="1161.2975079195312" y2="5" style="visibility: inherit;" fill="rgb(0, 0, 0)" stroke="rgb(204, 204, 204)" stroke-width="1px"></line><line x1="1352.1931807829296" y1="0" x2="1352.1931807829296" y2="5" style="visibility: inherit;" fill="rgb(0, 0, 0)" stroke="rgb(204, 204, 204)" stroke-width="1px"></line><line x1="1543.0888536463283" y1="0" x2="1543.0888536463283" y2="5" style="visibility: inherit;" fill="rgb(0, 0, 0)" stroke="rgb(204, 204, 204)" stroke-width="1px"></line></g><g transform="translate(0, 8)"><text x="15.923470739139852" y="0" dx="0em" dy="0.95em" style="text-anchor: middle; visibility: inherit; font-family: &quot;Helvetica Neue&quot;, sans-serif; font-size: 12px; font-weight: 200;" fill="rgb(50, 49, 63)" stroke="none" stroke-width="1px">0.000</text><text x="206.81914360253842" y="0" dx="0em" dy="0.95em" style="text-anchor: middle; visibility: inherit; font-family: &quot;Helvetica Neue&quot;, sans-serif; font-size: 12px; font-weight: 200;" fill="rgb(50, 49, 63)" stroke="none" stroke-width="1px">5.000k</text><text x="397.71481646593696" y="0" dx="0em" dy="0.95em" style="text-anchor: middle; visibility: inherit; font-family: &quot;Helvetica Neue&quot;, sans-serif; font-size: 12px; font-weight: 200;" fill="rgb(50, 49, 63)" stroke="none" stroke-width="1px">10.00k</text><text x="588.6104893293356" y="0" dx="0em" dy="0.95em" style="text-anchor: middle; visibility: inherit; font-family: &quot;Helvetica Neue&quot;, sans-serif; font-size: 12px; font-weight: 200;" fill="rgb(50, 49, 63)" stroke="none" stroke-width="1px">15.00k</text><text x="779.506162192734" y="0" dx="0em" dy="0.95em" style="text-anchor: middle; visibility: inherit; font-family: &quot;Helvetica Neue&quot;, sans-serif; font-size: 12px; font-weight: 200;" fill="rgb(50, 49, 63)" stroke="none" stroke-width="1px">20.00k</text><text x="970.4018350561325" y="0" dx="0em" dy="0.95em" style="text-anchor: middle; visibility: inherit; font-family: &quot;Helvetica Neue&quot;, sans-serif; font-size: 12px; font-weight: 200;" fill="rgb(50, 49, 63)" stroke="none" stroke-width="1px">25.00k</text><text x="1161.2975079195312" y="0" dx="0em" dy="0.95em" style="text-anchor: middle; visibility: inherit; font-family: &quot;Helvetica Neue&quot;, sans-serif; font-size: 12px; font-weight: 200;" fill="rgb(50, 49, 63)" stroke="none" stroke-width="1px">30.00k</text><text x="1352.1931807829296" y="0" dx="0em" dy="0.95em" style="text-anchor: middle; visibility: inherit; font-family: &quot;Helvetica Neue&quot;, sans-serif; font-size: 12px; font-weight: 200;" fill="rgb(50, 49, 63)" stroke="none" stroke-width="1px">35.00k</text><text x="1543.0888536463283" y="0" dx="0em" dy="0.95em" style="text-anchor: middle; visibility: hidden; font-family: &quot;Helvetica Neue&quot;, sans-serif; font-size: 12px; font-weight: 200;" fill="rgb(50, 49, 63)" stroke="none" stroke-width="1px">40.00k</text></g><line x1="0" y1="0" x2="1544.1975" y2="0" fill="rgb(0, 0, 0)" stroke="rgb(204, 204, 204)" stroke-width="1px"></line></g></g></g></g></svg>